<svg version="1.1" baseProfile="full" xmlns="http://www.w3.org/2000/svg" preserveAspectRatio="xMidYMid slice">
    <!--
    
    #pushme-p       Logo, just p
    #pushme         Full logo (not finished)
    #
    
    -->

    <style>
        .svg-icon {
        }
        .fill {
            fill: #000000;
        }
        .outline {
            fill: transparent;
            stroke-width: 0.025;
            stroke: #000000;
            stroke-linecap: round;
            stroke-linejoin: round;
        }
    </style>

    <!-- Scaling -->
    <view id="pushme-p" viewBox="0 0 1 1" />
    <svg class="svg-icon" x="0">
        <g transform="scale(1.55) translate(-170,-264)">
            <path class="fill" d="M212.62,264.53A34.64,34.64,0,0,0,178,299.12v40.93a6.06,6.06,0,0,0,6.13,6,6,6,0,0,0,6-6V327.44a1.9,1.9,0,0,1,0-.25V299.72c0-.15,0-.3,0-.46a22.47,22.47,0,1,1,33.65,19.33,25.11,25.11,0,0,1-3.57,1.41,28.47,28.47,0,0,1-7.55,1.59,34.17,34.17,0,0,1-3.55.07h0a5.49,5.49,0,0,0-5.13,4.41,6.43,6.43,0,0,0-.24,2.17,5.6,5.6,0,0,0,4,4.82,8.37,8.37,0,0,0,2.18.51l.24,0a3.13,3.13,0,0,0,.43,0c.46,0,.9,0,1.34.05l.71,0h.26l.34,0a32.22,32.22,0,0,0,11.56-2.18,34.72,34.72,0,0,0,8.47-4.6,34.48,34.48,0,0,0,10.58-42.6A34.77,34.77,0,0,0,212.62,264.53Z" />
        </g>
    </svg>

    <view id="pushpod" viewBox="1 0 1 1" />
    <svg class="svg-icon" x="1">
        <defs>
            <g id="pushpod-slot">
                <path class="outline" d="M -0.12 -0.05 A 0.12 0.12 0 0 1 0.12 -0.05 L 0.12 0.05 A 0.12 0.12 0 0 1 -0.12 0.05 Z" />
            </g>
        </defs>
        <path class="outline" d="M 0.1 0.1 S 0.2 0.0 0.1 0.1 S 0.0 0.8 0.1 0.9 S 0.8 1.0 0.9 0.9 S 1.0 0.2 0.9 0.1 S 0.2 0.0 0.1 0.1 Z" />
        <use x="0.28" y="0.28" href="#pushpod-slot" />
        <use x="0.72" y="0.28" href="#pushpod-slot" />
        <use x="0.28" y="0.72" href="#pushpod-slot" />
        <use x="0.72" y="0.72" href="#pushpod-slot" />
    </svg>

    <view id="bike" viewBox="2 0 1 1" />
    <svg class="svg-icon" x="2">
        <!-- Wheels -->
        <circle class="outline" cx="0.2" cy="0.6" r="0.18" />
        <circle class="outline" cx="0.78" cy="0.6" r="0.18" />
        <!-- Steering -->
        <line class="outline" x1="0.22" y1="0.6" x2="0.3" y2="0.3" />
        <line class="outline" x1="0.2" y1="0.31" x2="0.3" y2="0.3" />
        <!-- Frame -->
        <line class="outline" x1="0.3" y1="0.37" x2="0.54" y2="0.6" />
        <line class="outline" x1="0.78" y1="0.6" x2="0.54" y2="0.6" />
        <line class="outline" x1="0.78" y1="0.6" x2="0.6" y2="0.39" />
        <line class="outline" x1="0.54" y1="0.6" x2="0.6" y2="0.34" />
        <line class="outline" x1="0.3" y1="0.37" x2="0.6" y2="0.39" />
        <!-- Seat -->
        <line class="outline" x1="0.65" y1="0.33" x2="0.55" y2="0.34" />
        <line class="outline" x1="0.65" y1="0.35" x2="0.55" y2="0.34" />
        <line class="outline" x1="0.65" y1="0.35" x2="0.65" y2="0.33" />
    </svg>

</svg>
