<svg id="Layer_1" data-name="Layer 1" xmlns="http://www.w3.org/2000/svg" viewBox="0 0 488.77 96.1"><defs><style>.cls-1{fill:#000;}</style></defs><title>new_logo</title><path class="cls-1" d="M309.24,264.53a6.05,6.05,0,0,0-6.12,6v35.39a15.6,15.6,0,1,1-31.2,0V270.52a6.07,6.07,0,0,0-6.14-6,6,6,0,0,0-6,6v35.55a27.73,27.73,0,0,0,55.45.12V270.52A6,6,0,0,0,309.24,264.53Z" transform="translate(-178.02 -249.94)"/><path class="cls-1" d="M557.55,292a27.5,27.5,0,0,0-27.5-27.45A27.22,27.22,0,0,0,509.38,274a.93.93,0,0,1-.72.33A.94.94,0,0,1,508,274a27.46,27.46,0,0,0-48.18,17.94v35.68a6.07,6.07,0,1,0,12.13,0V291.91a15.32,15.32,0,0,1,30.63,0v35.68a6.14,6.14,0,0,0,6.13,6.13,6,6,0,0,0,6-6.13V291.91a15.39,15.39,0,0,1,30.77,0v35.68a6.07,6.07,0,0,0,6,6.13,6.14,6.14,0,0,0,6.14-6.13S557.55,293.77,557.55,292Z" transform="translate(-178.02 -249.94)"/><path class="cls-1" d="M420.62,264.29c-6,0-9.24,1.67-14.24,4.95a.94.94,0,0,1-1,0,1,1,0,0,1-.5-.83V255.94a6.07,6.07,0,0,0-6.13-6,6,6,0,0,0-6,6v71.41a6.07,6.07,0,1,0,12.13,0V294.5c0-10,5.73-18.07,15.7-18.07s14.57,8.33,14.57,18.3v32.85a6.07,6.07,0,0,0,6,6.14,6.15,6.15,0,0,0,6.14-6.14V294.73C447.31,278.07,437.35,264.29,420.62,264.29Z" transform="translate(-178.02 -249.94)"/><path class="cls-1" d="M212.62,264.53A34.64,34.64,0,0,0,178,299.12v40.93a6.06,6.06,0,0,0,6.13,6,6,6,0,0,0,6-6V327.44a1.9,1.9,0,0,1,0-.25V299.72c0-.15,0-.3,0-.46a22.47,22.47,0,1,1,33.65,19.33,25.11,25.11,0,0,1-3.57,1.41,28.47,28.47,0,0,1-7.55,1.59,34.17,34.17,0,0,1-3.55.07h0a5.49,5.49,0,0,0-5.13,4.41,6.43,6.43,0,0,0-.24,2.17,5.6,5.6,0,0,0,4,4.82,8.37,8.37,0,0,0,2.18.51l.24,0a3.13,3.13,0,0,0,.43,0c.46,0,.9,0,1.34.05l.71,0h.26l.34,0a32.22,32.22,0,0,0,11.56-2.18,34.72,34.72,0,0,0,8.47-4.6,34.48,34.48,0,0,0,10.58-42.6A34.77,34.77,0,0,0,212.62,264.53Z" transform="translate(-178.02 -249.94)"/><path class="cls-1" d="M636.56,299.67a6.84,6.84,0,0,0-3.73-.5,5,5,0,0,0-4.28,3.3,29.43,29.43,0,0,1-5.39,9.91,31.22,31.22,0,0,1-4.26,4.18,22.62,22.62,0,0,1-19.62,4.35l-.21-.05c-.46-.12-.9-.26-1.33-.4s-.57-.2-.84-.3l-.21-.07c-.21-.08-.42-.15-.62-.24a21.51,21.51,0,0,1-3.25-1.7A25.71,25.71,0,0,1,590,316a24.21,24.21,0,0,1-2.69-2.77,23,23,0,0,1-3.67-6.48,22.58,22.58,0,0,1-1-3.46c-.08-.39-.13-.79-.19-1.17l0-.39a22.68,22.68,0,0,1,19.21-25.31,22.82,22.82,0,0,1,15.47,3.31.93.93,0,0,1,.43.73.94.94,0,0,1-.34.79l-13.08,10.64a6,6,0,0,0-.85,8.36,6,6,0,0,0,5.56,2.2,5.9,5.9,0,0,0,2.66-1.1l.18-.12,19-15.48a6,6,0,0,0,1.61-7.39,6.45,6.45,0,0,0-.66-1,1.71,1.71,0,0,1-.11-.17c-8.16-9.88-19.16-14.31-31.12-12.56a36.36,36.36,0,0,0-17.49,7.66,34.65,34.65,0,0,0-5,48.67c.68.84,1.43,1.65,2.27,2.5a34.76,34.76,0,0,0,29.6,9.89h0a34.43,34.43,0,0,0,16.79-7.4l.27-.22c3.95-3.2,9.34-7.59,12.5-17.8C640.28,304.91,639.8,301.2,636.56,299.67Z" transform="translate(-178.02 -249.94)"/><path class="cls-1" d="M376.35,301.92c-4-5.43-9.61-6-16.39-7.6L358.7,294l0-.06-7.92-1.77c-5.08-1.14-10.8-3.07-10.8-7.92a9.18,9.18,0,0,1,9.43-8.89h22.92a5.73,5.73,0,1,0,0-11.45H349.22c-11.78.11-21.37,9.23-21.37,20.34a19.18,19.18,0,0,0,3.84,11.46c4,5.44,9.66,6,16.51,7.61l9.07,2.08c5.07,1.14,10.8,3.14,10.8,8s-4.23,8.81-9.44,8.81H332.85a5.73,5.73,0,1,0,0,11.44h25.9c11.84-.1,21.46-9.19,21.46-20.25A19.37,19.37,0,0,0,376.35,301.92Z" transform="translate(-178.02 -249.94)"/><path class="cls-1" d="M666.8,260.07a10.42,10.42,0,1,1-10.42-10.13A10.41,10.41,0,0,1,666.8,260.07Zm-1.57,0a8.85,8.85,0,1,0-8.85,8.65A8.73,8.73,0,0,0,665.23,260.07Zm-9,1.26h-1.53v3.81h-1.49V254.73h3.5a3.32,3.32,0,0,1,1.29,6.41l3.11,4h-1.91Zm.48-1.34a1.78,1.78,0,0,0,1.9-2,1.76,1.76,0,0,0-1.9-1.9h-2V260Z" transform="translate(-178.02 -249.94)"/></svg>